<svg width="736" height="151" viewBox="0 0 736 151" fill="none" xmlns="http://www.w3.org/2000/svg">
<path d="M201.902 109.779H182V45.0349H202.784C209.04 45.0349 214.393 46.331 218.844 48.9233C223.294 51.4946 226.706 55.1933 229.078 60.0196C231.45 64.8249 232.637 70.5785 232.637 77.2805C232.637 84.0247 231.44 89.831 229.047 94.6995C226.653 99.5469 223.168 103.277 218.592 105.891C214.015 108.483 208.452 109.779 201.902 109.779ZM189.81 102.824H201.398C206.73 102.824 211.15 101.791 214.656 99.726C218.161 97.6606 220.775 94.7206 222.497 90.9059C224.218 87.0912 225.079 82.5494 225.079 77.2805C225.079 72.0538 224.229 67.5541 222.528 63.7816C220.828 59.988 218.287 57.0796 214.907 55.0563C211.527 53.012 207.318 51.9898 202.28 51.9898H189.81V102.824Z" fill="#ffffff"/>
<path d="M265.009 110.791C260.348 110.791 256.328 109.758 252.948 107.693C249.589 105.606 246.996 102.698 245.17 98.9673C243.364 95.2158 242.462 90.8532 242.462 85.8794C242.462 80.9055 243.364 76.5218 245.17 72.7282C246.996 68.9135 249.536 65.9419 252.79 63.8132C256.065 61.6635 259.886 60.5887 264.253 60.5887C266.772 60.5887 269.26 61.0102 271.716 61.8532C274.172 62.6962 276.408 64.0661 278.424 65.9629C280.439 67.8387 282.045 70.3256 283.242 73.4237C284.438 76.5218 285.036 80.3365 285.036 84.8677V88.0291H247.752V81.5799H277.479C277.479 78.8401 276.933 76.3953 275.841 74.2456C274.771 72.0959 273.238 70.3993 271.244 69.1559C269.27 67.9124 266.94 67.2907 264.253 67.2907C261.293 67.2907 258.732 68.0283 256.569 69.5036C254.428 70.9579 252.78 72.8547 251.625 75.194C250.471 77.5334 249.893 80.0414 249.893 82.718V87.0174C249.893 90.6846 250.523 93.7932 251.783 96.3434C253.063 98.8725 254.837 100.801 257.105 102.129C259.372 103.435 262.007 104.089 265.009 104.089C266.961 104.089 268.724 103.815 270.299 103.267C271.895 102.698 273.27 101.855 274.424 100.738C275.579 99.5996 276.471 98.1875 277.101 96.5015L284.281 98.5247C283.525 100.969 282.255 103.119 280.47 104.974C278.686 106.807 276.482 108.241 273.857 109.273C271.233 110.285 268.284 110.791 265.009 110.791Z" fill="#ffffff"/>
<path d="M317.881 61.2209V67.5436H291.807V61.2209H317.881ZM299.617 109.779V54.5189C299.617 51.7369 300.267 49.4186 301.569 47.564C302.871 45.7093 304.561 44.3183 306.639 43.391C308.717 42.4637 310.911 42 313.22 42C315.047 42 316.537 42.1475 317.692 42.4426C318.847 42.7376 319.707 43.0116 320.274 43.2645L318.133 49.7137C317.755 49.5872 317.23 49.4291 316.558 49.2395C315.908 49.0498 315.047 48.9549 313.976 48.9549C311.52 48.9549 309.746 49.5767 308.654 50.8201C307.584 52.0636 307.048 53.8866 307.048 56.2892V109.779H299.617Z" fill="#ffffff"/>
<path d="M341.144 110.917C338.079 110.917 335.298 110.338 332.8 109.178C330.301 107.998 328.317 106.302 326.848 104.089C325.378 101.855 324.644 99.157 324.644 95.9956C324.644 93.2137 325.189 90.9586 326.281 89.2304C327.373 87.4811 328.832 86.1112 330.658 85.1206C332.485 84.1301 334.5 83.3924 336.704 82.9077C338.93 82.4019 341.165 82.0015 343.412 81.7064C346.351 81.327 348.734 81.0425 350.56 80.8528C352.408 80.6421 353.751 80.2943 354.591 79.8096C355.452 79.3249 355.882 78.4818 355.882 77.2805V77.0276C355.882 73.9084 355.032 71.4847 353.331 69.7565C351.652 68.0283 349.101 67.1642 345.679 67.1642C342.131 67.1642 339.35 67.944 337.334 69.5036C335.319 71.0632 333.902 72.7282 333.083 74.4985L326.029 71.9695C327.289 69.0189 328.968 66.7217 331.068 65.0778C333.188 63.4128 335.497 62.2536 337.995 61.6003C340.515 60.9259 342.992 60.5887 345.427 60.5887C346.981 60.5887 348.765 60.7783 350.781 61.1577C352.817 61.516 354.78 62.2642 356.669 63.4023C358.58 64.5403 360.165 66.258 361.424 68.5552C362.684 70.8525 363.314 73.9295 363.314 77.7863V109.779H355.882V103.203H355.504C355 104.257 354.16 105.385 352.985 106.586C351.809 107.787 350.245 108.81 348.293 109.653C346.34 110.496 343.958 110.917 341.144 110.917ZM342.278 104.215C345.217 104.215 347.694 103.636 349.71 102.476C351.746 101.317 353.279 99.8209 354.307 97.9873C355.357 96.1537 355.882 94.2253 355.882 92.202V85.3735C355.567 85.7529 354.874 86.1007 353.804 86.4168C352.754 86.7118 351.536 86.9753 350.151 87.2071C348.786 87.4179 347.453 87.6076 346.151 87.7762C344.871 87.9237 343.832 88.0501 343.034 88.1555C341.102 88.4084 339.297 88.8194 337.618 89.3884C335.959 89.9364 334.615 90.7689 333.587 91.8859C332.579 92.9818 332.075 94.4782 332.075 96.375C332.075 98.9673 333.03 100.927 334.941 102.255C336.872 103.562 339.318 104.215 342.278 104.215Z" fill="#ffffff"/>
<path d="M407.361 89.9259V61.2209H414.793V109.779H407.361V101.56H406.857C405.723 104.025 403.96 106.122 401.567 107.851C399.173 109.558 396.15 110.411 392.497 110.411C389.474 110.411 386.787 109.747 384.436 108.42C382.085 107.071 380.237 105.048 378.894 102.35C377.55 99.6312 376.878 96.2064 376.878 92.0756V61.2209H384.31V91.5698C384.31 95.1105 385.297 97.9346 387.27 100.042C389.264 102.15 391.805 103.203 394.891 103.203C396.738 103.203 398.617 102.729 400.527 101.781C402.459 100.832 404.075 99.3783 405.377 97.4182C406.7 95.4582 407.361 92.9608 407.361 89.9259Z" fill="#ffffff"/>
<path d="M435.836 45.0349V109.779H428.404V45.0349H435.836Z" fill="#ffffff"/>
<path d="M470.483 61.2209V67.5436H445.417V61.2209H470.483ZM452.723 49.5872H460.154V95.8692C460.154 97.9767 460.459 99.5574 461.068 100.611C461.697 101.644 462.495 102.339 463.461 102.698C464.448 103.035 465.487 103.203 466.578 103.203C467.397 103.203 468.069 103.161 468.594 103.077C469.119 102.972 469.539 102.887 469.853 102.824L471.365 109.526C470.861 109.716 470.158 109.906 469.255 110.095C468.352 110.306 467.208 110.411 465.823 110.411C463.723 110.411 461.666 109.958 459.651 109.052C457.656 108.146 455.998 106.765 454.675 104.911C453.374 103.056 452.723 100.717 452.723 97.8924V49.5872Z" fill="#ffffff"/>
<path d="M507.61 109.779V45.0349H515.42V102.824H545.399V109.779H507.61Z" fill="#ffffff"/>
<path d="M576.133 110.791C571.767 110.791 567.935 109.747 564.639 107.661C561.364 105.574 558.803 102.656 556.956 98.9041C555.129 95.1526 554.216 90.7689 554.216 85.7529C554.216 80.6948 555.129 76.2794 556.956 72.5069C558.803 68.7344 561.364 65.8049 564.639 63.7184C567.935 61.6319 571.767 60.5887 576.133 60.5887C580.5 60.5887 584.321 61.6319 587.596 63.7184C590.892 65.8049 593.453 68.7344 595.28 72.5069C597.127 76.2794 598.051 80.6948 598.051 85.7529C598.051 90.7689 597.127 95.1526 595.28 98.9041C593.453 102.656 590.892 105.574 587.596 107.661C584.321 109.747 580.5 110.791 576.133 110.791ZM576.133 104.089C579.45 104.089 582.18 103.235 584.321 101.528C586.462 99.8209 588.047 97.5763 589.076 94.7943C590.105 92.0124 590.619 88.9985 590.619 85.7529C590.619 82.5073 590.105 79.4829 589.076 76.6799C588.047 73.8768 586.462 71.6112 584.321 69.883C582.18 68.1548 579.45 67.2907 576.133 67.2907C572.816 67.2907 570.087 68.1548 567.946 69.883C565.805 71.6112 564.22 73.8768 563.191 76.6799C562.162 79.4829 561.648 82.5073 561.648 85.7529C561.648 88.9985 562.162 92.0124 563.191 94.7943C564.22 97.5763 565.805 99.8209 567.946 101.528C570.087 103.235 572.816 104.089 576.133 104.089Z" fill="#ffffff"/>
<path d="M628.919 129C625.329 129 622.243 128.536 619.661 127.609C617.079 126.703 614.927 125.501 613.206 124.005C611.505 122.53 610.151 120.949 609.143 119.263L615.063 115.09C615.735 115.975 616.585 116.987 617.614 118.125C618.643 119.284 620.049 120.285 621.834 121.128C623.639 121.992 626.001 122.424 628.919 122.424C632.824 122.424 636.047 121.476 638.587 119.579C641.127 117.682 642.397 114.711 642.397 110.664V100.801H641.767C641.221 101.686 640.445 102.782 639.437 104.089C638.45 105.374 637.023 106.523 635.154 107.535C633.307 108.525 630.809 109.02 627.66 109.02C623.755 109.02 620.249 108.093 617.142 106.238C614.056 104.384 611.61 101.686 609.805 98.1453C608.02 94.6047 607.128 90.3052 607.128 85.2471C607.128 80.2733 607.999 75.9422 609.742 72.254C611.484 68.5447 613.909 65.6784 617.016 63.6552C620.123 61.6108 623.713 60.5887 627.786 60.5887C630.935 60.5887 633.433 61.1156 635.28 62.1693C637.149 63.202 638.576 64.3823 639.563 65.71C640.571 67.0167 641.347 68.0916 641.893 68.9346H642.649V61.2209H649.829V111.17C649.829 115.343 648.884 118.736 646.995 121.35C645.126 123.984 642.607 125.912 639.437 127.135C636.288 128.378 632.782 129 628.919 129ZM628.667 102.318C631.648 102.318 634.168 101.633 636.225 100.263C638.282 98.8935 639.846 96.923 640.917 94.3517C641.988 91.7805 642.523 88.7035 642.523 85.1206C642.523 81.6221 641.998 78.5345 640.949 75.8579C639.899 73.1813 638.345 71.0843 636.288 69.5669C634.231 68.0494 631.69 67.2907 628.667 67.2907C625.518 67.2907 622.894 68.0916 620.795 69.6933C618.716 71.2951 617.152 73.4448 616.103 76.1424C615.074 78.8401 614.56 81.8328 614.56 85.1206C614.56 88.4927 615.084 91.4749 616.134 94.0672C617.205 96.6384 618.779 98.6617 620.858 100.137C622.957 101.591 625.56 102.318 628.667 102.318Z" fill="#ffffff"/>
<path d="M683.083 110.791C678.716 110.791 674.885 109.747 671.589 107.661C668.314 105.574 665.752 102.656 663.905 98.9041C662.079 95.1526 661.165 90.7689 661.165 85.7529C661.165 80.6948 662.079 76.2794 663.905 72.5069C665.752 68.7344 668.314 65.8049 671.589 63.7184C674.885 61.6319 678.716 60.5887 683.083 60.5887C687.449 60.5887 691.27 61.6319 694.545 63.7184C697.841 65.8049 700.402 68.7344 702.229 72.5069C704.076 76.2794 705 80.6948 705 85.7529C705 90.7689 704.076 95.1526 702.229 98.9041C700.402 102.656 697.841 105.574 694.545 107.661C691.27 109.747 687.449 110.791 683.083 110.791ZM683.083 104.089C686.4 104.089 689.129 103.235 691.27 101.528C693.412 99.8209 694.997 97.5763 696.025 94.7943C697.054 92.0124 697.568 88.9985 697.568 85.7529C697.568 82.5073 697.054 79.4829 696.025 76.6799C694.997 73.8768 693.412 71.6112 691.27 69.883C689.129 68.1548 686.4 67.2907 683.083 67.2907C679.766 67.2907 677.037 68.1548 674.895 69.883C672.754 71.6112 671.169 73.8768 670.14 76.6799C669.111 79.4829 668.597 82.5073 668.597 85.7529C668.597 88.9985 669.111 92.0124 670.14 94.7943C671.169 97.5763 672.754 99.8209 674.895 101.528C677.037 103.235 679.766 104.089 683.083 104.089Z" fill="#ffffff"/>
<rect opacity="0.5" x="30" y="29" width="86" height="63" fill="#ffffff"/>
<rect x="81" y="57" width="70" height="70" rx="35" fill="#ffffff"/>
</svg>
